<?xml version="1.0" standalone="no"?>
<!DOCTYPE svg PUBLIC "-//W3C//DTD SVG 20010904//EN"
 "http://www.w3.org/TR/2001/REC-SVG-20010904/DTD/svg10.dtd">
<svg version="1.0" xmlns="http://www.w3.org/2000/svg"
 width="64.000000pt" height="64.000000pt" viewBox="0 0 64.000000 64.000000"
 preserveAspectRatio="xMidYMid meet">

<g transform="translate(0.000000,64.000000) scale(0.100000,-0.100000)"
fill="#000000" stroke="none">
<path d="M50 590 c-26 -26 -25 -64 2 -90 29 -27 54 -25 83 5 30 29 32 54 5 83
-26 27 -64 28 -90 2z"/>
<path d="M282 594 c-34 -23 -27 -83 11 -104 24 -13 30 -13 55 0 37 21 44 81
10 104 -12 9 -29 16 -38 16 -9 0 -26 -7 -38 -16z"/>
<path d="M500 588 c-27 -29 -25 -54 5 -83 29 -30 54 -32 83 -5 27 26 28 64 2
90 -26 26 -64 25 -90 -2z"/>
<path d="M46 358 c-9 -12 -16 -29 -16 -38 0 -9 7 -26 16 -38 23 -34 83 -27
104 11 13 24 13 30 0 55 -21 37 -81 44 -104 10z"/>
<path d="M276 364 c-20 -20 -20 -68 0 -88 20 -20 68 -20 88 0 20 20 20 68 0
88 -20 20 -68 20 -88 0z"/>
<path d="M496 358 c-9 -12 -16 -29 -16 -38 0 -9 7 -26 16 -38 23 -34 83 -27
104 11 13 24 13 30 0 55 -21 37 -81 44 -104 10z"/>
<path d="M52 140 c-27 -26 -28 -64 -2 -90 26 -26 64 -25 90 2 27 29 25 54 -5
83 -29 30 -54 32 -83 5z"/>
<path d="M282 144 c-34 -23 -27 -83 11 -104 24 -13 30 -13 55 0 37 21 44 81
10 104 -12 9 -29 16 -38 16 -9 0 -26 -7 -38 -16z"/>
<path d="M502 137 c-27 -29 -28 -57 -2 -85 26 -27 64 -28 90 -2 26 26 25 64
-2 90 -29 26 -59 25 -86 -3z"/>
</g>
</svg>
